<mxfile host="app.diagrams.net" agent="Mozilla/5.0 (Windows NT 10.0; Win64; x64) AppleWebKit/537.36 (KHTML, like Gecko) Chrome/137.0.0.0 Safari/537.36" version="27.1.6">
  <diagram name="Page-1" id="5rtdl1-ccvhHnKzj9iE8">
    <mxGraphModel dx="1281" dy="562" grid="1" gridSize="10" guides="1" tooltips="1" connect="1" arrows="1" fold="1" page="1" pageScale="1" pageWidth="850" pageHeight="1100" math="0" shadow="0">
      <root>
        <mxCell id="0" />
        <mxCell id="1" parent="0" />
        <UserObject label="src/&#xa;│&#xa;├── assets/                  # Images, icons, fonts, etc.&#xa;│&#xa;├── components/              # Reusable UI components&#xa;│   ├── Button/&#xa;│   └── ProductCard/&#xa;│&#xa;├── layouts/                 # Shared and role-specific layouts&#xa;│   ├── user/&#xa;│   │   ├── UserNavbar.jsx&#xa;│   │   ├── UserSidebar.jsx&#xa;│   │   ├── UserFooter.jsx&#xa;│   │   └── UserLayout.jsx&#xa;│   │&#xa;│   ├── admin/&#xa;│   │   ├── AdminNavbar.jsx&#xa;│   │   ├── AdminSidebar.jsx&#xa;│   │   ├── AdminFooter.jsx&#xa;│   │   └── AdminLayout.jsx&#xa;│&#xa;├── pages/                   # Route-level components&#xa;│   ├── user/&#xa;│   │   ├── Home.jsx&#xa;│   │   ├── ProductDetail.jsx&#xa;│   │   ├── Cart.jsx&#xa;│   │   └── Checkout.jsx&#xa;│   │&#xa;│   ├── admin/&#xa;│   │   ├── Dashboard.jsx&#xa;│   │   ├── Products.jsx&#xa;│   │   ├── Orders.jsx&#xa;│   │   └── Users.jsx&#xa;│&#xa;├── features/                # Domain-specific logic (can be reused)&#xa;│   ├── auth/&#xa;│   │   ├── authSlice.js&#xa;│   │   └── useAuth.js&#xa;│   ├── products/&#xa;│   ├── cart/&#xa;│   └── orders/&#xa;│&#xa;├── services/                # API functions&#xa;│   ├── authService.js&#xa;│   ├── productService.js&#xa;│   └── orderService.js&#xa;│&#xa;├── hooks/                   # Custom hooks&#xa;│   └── useDebounce.js&#xa;│&#xa;├── store/                   # Redux or Zustand&#xa;│   ├── index.js&#xa;│   └── cartSlice.js&#xa;│&#xa;├── routes/                  # Route definitions &amp; guards&#xa;│   ├── UserRoutes.jsx&#xa;│   └── AdminRoutes.jsx&#xa;│&#xa;├── utils/                   # Helper functions&#xa;│   └── formatPrice.js&#xa;│&#xa;├── App.jsx&#xa;├── main.jsx&#xa;└── index.css" link="src/&#xa;│&#xa;├── assets/                  # Images, icons, fonts, etc.&#xa;│&#xa;├── components/              # Reusable UI components&#xa;│   ├── Button/&#xa;│   └── ProductCard/&#xa;│&#xa;├── layouts/                 # Shared and role-specific layouts&#xa;│   ├── user/&#xa;│   │   ├── UserNavbar.jsx&#xa;│   │   ├── UserSidebar.jsx&#xa;│   │   ├── UserFooter.jsx&#xa;│   │   └── UserLayout.jsx&#xa;│   │&#xa;│   ├── admin/&#xa;│   │   ├── AdminNavbar.jsx&#xa;│   │   ├── AdminSidebar.jsx&#xa;│   │   ├── AdminFooter.jsx&#xa;│   │   └── AdminLayout.jsx&#xa;│&#xa;├── pages/                   # Route-level components&#xa;│   ├── user/&#xa;│   │   ├── Home.jsx&#xa;│   │   ├── ProductDetail.jsx&#xa;│   │   ├── Cart.jsx&#xa;│   │   └── Checkout.jsx&#xa;│   │&#xa;│   ├── admin/&#xa;│   │   ├── Dashboard.jsx&#xa;│   │   ├── Products.jsx&#xa;│   │   ├── Orders.jsx&#xa;│   │   └── Users.jsx&#xa;│&#xa;├── features/                # Domain-specific logic (can be reused)&#xa;│   ├── auth/&#xa;│   │   ├── authSlice.js&#xa;│   │   └── useAuth.js&#xa;│   ├── products/&#xa;│   ├── cart/&#xa;│   └── orders/&#xa;│&#xa;├── services/                # API functions&#xa;│   ├── authService.js&#xa;│   ├── productService.js&#xa;│   └── orderService.js&#xa;│&#xa;├── hooks/                   # Custom hooks&#xa;│   └── useDebounce.js&#xa;│&#xa;├── store/                   # Redux or Zustand&#xa;│   ├── index.js&#xa;│   └── cartSlice.js&#xa;│&#xa;├── routes/                  # Route definitions &amp; guards&#xa;│   ├── UserRoutes.jsx&#xa;│   └── AdminRoutes.jsx&#xa;│&#xa;├── utils/                   # Helper functions&#xa;│   └── formatPrice.js&#xa;│&#xa;├── App.jsx&#xa;├── main.jsx&#xa;└── index.css" id="cGx5cIwmPUhDQM_EkyjN-1">
          <mxCell style="text;whiteSpace=wrap;" vertex="1" parent="1">
            <mxGeometry x="220" y="100" width="370" height="950" as="geometry" />
          </mxCell>
        </UserObject>
      </root>
    </mxGraphModel>
  </diagram>
</mxfile>
